<svg xmlns="http://www.w3.org/2000/svg" width="120" height="84" fill="#B0BAC0" viewBox="0 0 120 84">
  <path d="M115.905 73.042c-1.182 0-1.721.544-1.721 1.736s.539 1.735 1.721 1.735c1.183 0 1.722-.543 1.722-1.735 0-1.192-.539-1.736-1.722-1.736Zm0 .259c1.007 0 1.464.462 1.464 1.477 0 1.014-.457 1.476-1.464 1.476-1.005 0-1.463-.462-1.463-1.476 0-1.02.458-1.477 1.463-1.477Zm.032.597a7.292 7.292 0 0 0-.625.023c-.022 0-.027.01-.027.027v1.69c0 .027.005.032.031.032h.313c.022 0 .027-.005.027-.032v-.602h.191l.381.594c.017.031.031.04.072.04h.321c.027 0 .036-.019.019-.036l-.391-.62c.259-.05.349-.19.349-.53 0-.454-.167-.586-.661-.586Zm-.281.323h.24c.249 0 .322.054.322.276 0 .217-.073.263-.322.263h-.24v-.54ZM16.004 72.99c-.08 0-.135.087-.164.253l-.97 6.377c-.049.332-.128.713-.401.772-.145.03-.215.03-.292.03-.098 0-.157.018-.157.068 0 .088.078.108.176.108.311 0 .78-.03.966-.03.177 0 .62.03 1.029.03.145 0 .234-.02.234-.108 0-.05-.069-.069-.145-.069-.1 0-.237-.01-.41-.049-.17-.04-.295-.127-.295-.312 0-.154.01-.308.03-.46l.507-3.893h.038c.343.734.93 1.968 1.017 2.171.116.274.89 1.771 1.125 2.22.157.294.254.489.342.489.088 0 .136-.087.363-.547l2.13-4.44h.039l.586 4.304c.041.273.01.4-.047.42-.069.03-.11.06-.11.106 0 .06.06.09.285.109.39.028 1.74.059 1.984.059.139 0 .254-.03.254-.108 0-.06-.067-.069-.154-.069a1.97 1.97 0 0 1-.606-.098c-.296-.087-.394-.371-.48-.987l-.891-6.043c-.028-.205-.085-.303-.175-.303-.088 0-.147.077-.217.234l-2.658 5.584-2.668-5.515c-.128-.254-.187-.303-.265-.303Zm89.719 0c-.08 0-.138.087-.167.253l-.968 6.377c-.049.332-.128.713-.401.772-.146.03-.213.03-.294.03-.097 0-.155.018-.155.068 0 .088.079.108.175.108.312 0 .782-.03.969-.03.175 0 .615.03 1.026.03.147 0 .234-.02.234-.108 0-.05-.068-.069-.146-.069a1.938 1.938 0 0 1-.411-.049c-.167-.04-.295-.127-.295-.312 0-.156.011-.284.031-.46l.51-3.893h.039c.342.734.928 1.968 1.016 2.171.117.274.889 1.771 1.123 2.22.159.294.254.489.343.489.09 0 .137-.087.36-.547l2.132-4.44h.04l.586 4.304c.038.273.012.4-.048.42-.069.03-.108.06-.108.106 0 .06.059.09.283.109.39.028 1.74.059 1.986.059.135 0 .254-.03.254-.108 0-.06-.069-.069-.157-.069-.127 0-.323-.01-.606-.098-.293-.087-.39-.371-.478-.987l-.89-6.043c-.03-.205-.089-.303-.177-.303-.087 0-.147.077-.215.234l-2.659 5.584-2.669-5.515c-.127-.254-.186-.303-.263-.303Zm-54.333.136c-.049 0-.11.03-.157.038a3.49 3.49 0 0 1-.42.06c-.186.01-2.132.01-2.445.01-.137 0-.363-.01-.615-.02-.247 0-.53-.01-.792-.01-.148 0-.215.02-.215.09 0 .068.058.088.165.088.136 0 .305.008.382.03.32.067.4.222.42.556.019.313.019.587.019 2.071v1.723c0 .9 0 1.672-.049 2.081-.037.283-.087.5-.283.54a1.67 1.67 0 0 1-.353.038c-.116 0-.155.03-.155.079 0 .067.07.098.195.098.196 0 .45-.011.673-.02.237 0 .451-.01.558-.01.34.001.68.011 1.019.03.42.009.956.028 1.689.028.373 0 .461 0 .529-.254.05-.195.126-.86.126-1.085 0-.099 0-.177-.076-.177-.07 0-.09.04-.108.147-.069.401-.187.607-.44.724-.255.117-.665.117-.92.117-.995 0-1.154-.146-1.173-.82-.01-.285 0-1.185 0-1.516v-.774c0-.058.01-.097.06-.097.234 0 1.202.01 1.39.028.36.04.497.188.546.383.027.128.027.255.037.352 0 .049.02.088.09.088.087 0 .086-.108.086-.185.007-.219.02-.438.04-.656.027-.5.077-.654.077-.713 0-.06-.03-.079-.068-.079-.048 0-.087.049-.156.128-.086.096-.235.126-.468.145-.225.02-1.352.02-1.566.02-.059 0-.068-.039-.068-.108V73.82c0-.067.019-.096.068-.096.197 0 1.224.019 1.39.037.489.06.585.177.656.354.046.117.057.283.057.35 0 .09.02.138.087.138.068 0 .089-.059.098-.108.021-.116.04-.547.049-.645.03-.45.079-.566.079-.637 0-.048-.01-.087-.058-.087Zm-48.785.079c-.157 0-.234.02-.234.079 0 .078.059.097.157.097.117 0 .245.01.35.039.216.049.314.214.333.548.02.313.02.587.02 2.071v1.723c0 .948 0 1.72-.05 2.13-.028.285-.087.45-.283.491a1.668 1.668 0 0 1-.353.038c-.115 0-.156.03-.156.079 0 .067.07.098.197.098.391 0 1.005-.03 1.23-.03.265 0 .88.03 1.528.03.105 0 .183-.031.183-.098 0-.049-.048-.079-.155-.079-.147 0-.361-.02-.499-.038-.294-.04-.36-.217-.392-.48-.035-.42-.036-1.193-.036-2.141v-1.723c0-1.484 0-1.758.017-2.07.02-.343.098-.51.362-.558.117-.02.195-.03.296-.03.095 0 .153-.019.153-.097 0-.06-.077-.08-.204-.08-.373 0-.95.03-1.192.03-.285 0-.9-.03-1.272-.03Zm30.124 0c-.146 0-.215.02-.215.088 0 .07.058.088.166.088.137 0 .301.01.382.03.323.068.4.223.422.557.018.313.018.587.018 2.071v1.723c0 .9 0 1.672-.05 2.081-.037.283-.087.5-.281.54a1.68 1.68 0 0 1-.353.038c-.117 0-.157.03-.157.079 0 .067.069.098.197.098.39 0 1.005-.03 1.23-.03.255 0 .87.03 1.516.03.108 0 .185-.031.185-.098 0-.049-.048-.079-.156-.079a4.32 4.32 0 0 1-.499-.038c-.291-.04-.352-.257-.38-.529-.05-.42-.05-1.193-.05-2.092V73.85c0-.107.03-.166.078-.186a1.36 1.36 0 0 1 .38-.038c.362 0 .712.136.98.38.548.49.576 1.144.576 1.467 0 .997-.762 1.613-1.31 1.613-.205 0-.274.03-.274.109 0 .068.07.078.118.087.047.01.157.01.205.01 1.389 0 2.405-.979 2.405-2.366 0-.518-.274-.958-.488-1.165-.157-.146-.597-.556-1.82-.556-.449 0-1.015.03-1.418.03-.273 0-.889-.03-1.407-.03Zm28.234 0c-.143 0-.212.02-.212.088 0 .07.058.088.165.088.137 0 .303.01.38.03.325.068.403.223.423.557.019.313.019.587.019 2.071v1.723c0 .9 0 1.672-.05 2.081-.037.283-.087.5-.281.54a1.677 1.677 0 0 1-.354.038c-.115 0-.155.03-.155.079 0 .067.065.098.194.098.39 0 1.009-.03 1.194-.03.146 0 .87.03 1.436.03.126 0 .197-.031.197-.098 0-.049-.039-.079-.12-.079-.115 0-.331-.02-.475-.038-.295-.04-.354-.257-.384-.54-.048-.409-.048-1.182-.048-2.092v-.136c0-.057.03-.079.079-.079l.848.021c.07 0 .13.009.177.069.128.146.577.81.968 1.348.547.753.92 1.212 1.34 1.437.255.138.5.187 1.046.187h.927c.118 0 .19-.02.19-.098 0-.049-.041-.079-.119-.079-.08 0-.167-.01-.275-.03-.146-.028-.547-.097-1.093-.664-.58-.607-1.254-1.477-2.123-2.571.987-.802 1.29-1.468 1.29-2.191 0-.654-.391-1.154-.666-1.34-.525-.36-1.181-.42-1.797-.42-.302 0-1.046.03-1.38.03-.203 0-.821-.03-1.341-.03Zm15.359 0c-.155 0-.235.02-.235.079 0 .078.06.097.155.097.12 0 .245.01.353.039.215.049.313.214.332.548.02.313.02.587.02 2.071v1.723c0 .948 0 1.72-.05 2.13-.028.285-.087.45-.282.491a1.675 1.675 0 0 1-.353.038c-.116 0-.156.03-.156.079 0 .067.07.098.195.098.39 0 1.008-.03 1.232-.03.266 0 .88.03 1.525.03.108 0 .185-.031.185-.098 0-.049-.048-.079-.156-.079-.146 0-.36-.02-.498-.038-.294-.04-.36-.217-.39-.48-.04-.42-.04-1.193-.04-2.141v-1.723c0-1.484 0-1.758.019-2.07.021-.343.099-.51.36-.558.12-.02.196-.03.295-.03.099 0 .159-.019.159-.097 0-.06-.079-.08-.206-.08-.372 0-.948.03-1.195.03-.282 0-.9-.03-1.269-.03Zm11.677 0c-.147 0-.217.02-.217.088 0 .07.062.088.17.088.134 0 .3.01.38.03.323.068.399.223.42.557.019.313.019.587.019 2.071v1.43c0 1.418.37 2.14.87 2.59.714.645 1.654.675 2.17.675.638 0 1.34-.108 2.034-.705.822-.703.93-1.857.93-2.943v-1.047c0-1.484 0-1.758.02-2.07.018-.343.097-.51.362-.558.115-.02.177-.03.282-.03.119 0 .176-.019.176-.088 0-.069-.068-.088-.206-.088-.38 0-.997.03-1.112.03-.011 0-.627-.03-1.126-.03-.137 0-.208.02-.208.088 0 .07.06.088.169.088.108 0 .274.01.354.03.322.068.398.223.416.557.023.313.023.587.023 2.071v1.224c0 1.007-.03 1.887-.568 2.425-.395.39-.919.528-1.35.528-.332 0-.782-.04-1.222-.4-.478-.392-.763-.99-.763-2.407v-1.37c0-1.484 0-1.758.02-2.07.02-.343.096-.51.363-.558.116-.02.174-.03.281-.03.1 0 .155-.019.155-.088 0-.069-.065-.088-.213-.088-.35 0-.968.03-1.202.03-.293 0-.907-.03-1.427-.03Zm-24.501.459c.576 0 1.496.4 1.496 1.79 0 .802-.281 1.252-.577 1.465-.175.13-.302.167-.695.167-.244 0-.538-.028-.743-.098-.068-.028-.087-.069-.087-.175V73.84c0-.08.019-.117.087-.138.099-.028.276-.04.519-.04ZM55.704 35.77a2.03 2.03 0 0 0-2.028 2.029v12.19a2.02 2.02 0 0 0 .693 1.523 2.021 2.021 0 0 0 1.525.697h.785a2.03 2.03 0 0 0 2.027-2.029V37.99a2.023 2.023 0 0 0-.693-1.522 2.018 2.018 0 0 0-1.526-.697h-.783Zm-41.072 4.814c-7.645 0-12.257 6.13-12.257 12.103 0 6.318 4.99 12.165 12.32 12.165 5.656 0 10.458-3.665 11.817-9.195h-6.257c-.38.822-1.894 3.95-5.623 3.95-3.887 0-6.288-3.412-6.288-6.951 0-3.32 2.244-6.826 6.257-6.826 3.223 0 4.993 2.34 5.654 4.076h6.257c-.632-3.665-4.549-9.322-11.88-9.322Zm15.134.444V64.41h12.89v-5.245h-6.919V41.028h-5.971Zm42.051 0V55.15c0 3.446.41 5.089 2.339 7.206 1.926 2.086 5.023 2.496 6.728 2.496 2.907 0 5.025-.98 6.54-2.529 1.486-1.515 2.34-3.252 2.34-7.173V41.028H83.79V55.15c0 1.865 0 4.457-2.97 4.457-2.937 0-3.032-2.876-3.032-4.457V41.028h-5.972Zm21.8 0V64.41h8.184c8.878 0 12.035-5.372 12.035-11.754 0-2.56-.535-5.056-2.147-7.267-3.032-4.36-7.709-4.36-10.331-4.36h-7.741Zm-43.845.024a2.611 2.611 0 0 0-1.178.278l-.023-.023-.153.12a2.62 2.62 0 0 0-.483.376 13.189 13.189 0 0 0-5.107 10.46 13.22 13.22 0 0 0 3.985 9.467 13.223 13.223 0 0 0 9.474 3.993c7.314 0 13.267-5.953 13.267-13.27a13.17 13.17 0 0 0-4.028-9.52 13.81 13.81 0 0 0-1.282-1.14 2.625 2.625 0 0 0-.484-.372l-.163-.126-.023.025a2.63 2.63 0 0 0-3.784 2.36c0 .755.324 1.455.868 1.946.186.21.404.387.647.527.207.165.403.34.592.523a8.004 8.004 0 0 1 2.255 5.586c0 4.444-3.614 8.059-8.056 8.059a8.033 8.033 0 0 1-5.596-2.269 8.037 8.037 0 0 1-2.27-5.599 8.01 8.01 0 0 1 3.042-6.304 2.623 2.623 0 0 0 .448-4.227 2.619 2.619 0 0 0-1.948-.87Zm49.817 5.22h2.591c2.655 0 3.853 1.106 4.549 2.15.853 1.327 1.138 3 1.138 4.327 0 3.319-1.264 6.415-5.718 6.415h-2.56V46.272ZM2.371 69.195h111.466v-1.053H2.371v1.053ZM33.78 30.46c3.74-7.04 11.147-11.835 19.675-11.835 8.24 0 15.43 4.477 19.282 11.13 1.982-.7 4.07-1.057 6.172-1.055a18.49 18.49 0 0 1 12.637 4.972V2.352H24.668v26.695a18.772 18.772 0 0 1 9.111 1.414Z"/>
</svg>
