<svg xmlns="http://www.w3.org/2000/svg" width="575" height="80" fill="#fff" viewBox="0 0 575 80">
  <path d="M555.995 67.522H267.224l1.514-1.864c6.196-7.638 9.47-17.054 9.47-27.23 0-9.68-3.068-18.831-8.874-26.47l-1.398-1.836h288.059V12.4H272.43c5.25 7.651 8.018 16.602 8.018 26.027 0 9.898-2.948 19.122-8.547 26.815H556v2.279m-366.86-.136H0v-2.279h184.646c-5.254-7.651-8.018-16.602-8.018-26.027 0-9.898 2.947-19.122 8.552-26.82H0V9.981h189.852l-1.514 1.864c-6.196 7.638-9.47 17.053-9.47 27.23 0 9.68 3.068 18.83 8.878 26.469l1.394 1.841Z"/>
  <path d="M315.327 57.181c0 2.698-1.756 4.047-5.273 4.047h-17.986c-3.418 0-5.124-1.349-5.124-4.047V21.023c0-2.716 1.706-4.074 5.124-4.074h17.986c3.512 0 5.273 1.358 5.273 4.074v10.359h-8.588v-8.746h-11.172v32.905h11.168v-9.306h8.587V57.18m29.521-40.231h-8.623v44.28h8.623v-44.28Zm46.109 5.856h-9.51v38.423h-8.588V22.805h-9.51V16.95h27.608v5.856Zm27.12-5.856h-8.624v44.28h8.624v-44.28Zm45.522 44.279h-26.502v-3.536l16.145-34.773h-14.855v-5.97h25.136v3.819l-16.105 34.49h16.181v5.97Zm42.861 0h-23.921v-44.28h23.702v5.857h-15.079v12.93h12.978v5.742h-12.978v13.895h15.298v5.856Zm49.093 0h-7.558L534.171 33.36c.367 1.358.551 2.424.551 3.2v24.673h-8.404V16.949h7.557l13.82 27.303c-.368-1.358-.551-2.425-.551-3.2V16.945h8.404v44.284Zm-526.86-4.019c0 2.698-1.747 4.047-5.233 4.047H6.092c-3.462 0-5.196-1.35-5.196-4.047V46.654h8.623v9.028h10.54v-8.686L2.778 34.436C1.523 33.51.896 32.33.896 30.893V21.05c0-2.717 1.734-4.075 5.196-4.075h17.359c3.49 0 5.232 1.34 5.232 4.02v9.903h-8.619v-8.35H9.52v8.008l17.287 12.506c1.255.906 1.882 2.1 1.882 3.59V57.21Zm45.885-34.377h-9.51v38.424h-8.588V22.832h-9.51v-5.856h27.608v5.856Zm47.582 38.424h-8.551l-1.734-8.404h-10.8l-1.734 8.404H90.82v-.114l11.168-44.225h9.067l11.1 44.339Zm-11.499-14.092-4.202-19.975-4.237 19.975h8.439Zm59.817 14.092h-8.995l-9.511-20.572V36.69h8.476V22.664h-10.868v38.592h-8.623v-44.28h22.891c3.463 0 5.196 1.358 5.196 4.075v16.1c0 1.87-.824 3.077-2.468 3.624-.887.282-2.755.424-5.604.424l9.506 20.057Zm23.961-43.751c.744-.228 1.434-2.548 1.564-4.412.125-1.86-.255-3.54-.945-4.589-.825.939-1.434 2.552-1.559 4.412-.126 1.864.237 4.256.94 4.589Zm2.738-4.27c.766-.123 1.769-2.325 2.15-4.148.381-1.823.233-3.54-.305-4.68-.945.816-1.769 2.324-2.15 4.147-.376 1.828-.345 4.252.305 4.68Zm-4.879 8.741c.712-.338 1.08-2.753.954-4.635-.125-1.878-.739-3.51-1.572-4.462-.694 1.057-1.08 2.757-.954 4.64.13 1.882.829 4.22 1.572 4.457Zm10.908-16.133c.623-1.737.708-3.441.336-4.63-1.035.665-2.047 2.027-2.67 3.768-.622 1.737-.918 4.111-.336 4.626.766-.01 2.047-2.024 2.67-3.764Zm63.772 25.73c-.896 1.714-1.545 4.152-1.012 4.772.797.1 2.419-1.81 3.319-3.527.896-1.714 1.232-3.482 1.013-4.772-1.174.538-2.424 1.81-3.32 3.527Zm-2.195-5.158c.784-.124 1.806-2.366 2.191-4.23.39-1.864.237-3.614-.314-4.771-.963.83-1.805 2.365-2.19 4.229-.39 1.864-.35 4.334.313 4.771Zm1.022 4.707c.802-.013 2.132-2.114 2.777-3.92.645-1.808.739-3.586.345-4.816-1.08.692-2.132 2.11-2.777 3.92-.641 1.804-.95 4.288-.345 4.816Zm1.612 5.187c-1.133 1.586-2.119 3.933-1.671 4.63.789.214 2.675-1.463 3.808-3.05 1.133-1.59 1.711-3.308 1.671-4.63-1.254.37-2.674 1.464-3.808 3.05Zm-2.32 9.196c.757.328 2.88-1.08 4.233-2.506 1.349-1.427 2.168-3.058 2.312-4.389-1.299.196-2.881 1.08-4.234 2.507-1.352 1.426-2.661 3.627-2.311 4.388Zm-4.059-28c.704-.333 1.071-2.725.937-4.59-.126-1.859-.74-3.472-1.564-4.41-.685 1.047-1.066 2.729-.936 4.588.13 1.864.82 4.184 1.563 4.412Zm-6.096-7.894c.582-.51.286-2.893-.336-4.63-.623-1.736-1.631-3.103-2.67-3.764-.372 1.19-.283 2.894.336 4.63.622 1.732 1.904 3.746 2.67 3.764Zm3.359 3.624c.65-.429.686-2.849.305-4.68-.381-1.824-1.205-3.332-2.15-4.148-.538 1.14-.69 2.853-.305 4.68.381 1.823 1.384 4.02 2.15 4.148Zm4.874 8.741c.748-.233 1.447-2.575 1.572-4.453.126-1.878-.259-3.582-.954-4.64-.828.949-1.447 2.58-1.572 4.462-.13 1.873.242 4.289.954 4.63Zm-76.248 25.826c1.55 1.23 3.866 2.343 4.574 1.905.251-.811-1.371-2.83-2.916-4.06-1.55-1.236-3.253-1.9-4.574-1.9.327 1.303 1.366 2.82 2.916 4.055Zm62.2 24.482c-2.007-.66-4.739-.916-5.304-.205.045.907 2.401 2.338 4.408 2.999 2.007.665 3.965.702 5.304.21-.797-1.199-2.397-2.338-4.408-3.004Zm3.682-2.752c-2.06-.37-4.771-.233-5.223.542.166.884 2.67 1.955 4.726 2.32 2.056.373 3.978.136 5.223-.543-.945-1.057-2.67-1.95-4.726-2.32Zm-3.96 8.663c-.636-1.312-2.078-2.684-3.991-3.632-1.922-.948-4.614-1.59-5.277-.966-.081.916 2.083 2.684 3.996 3.637 1.912.952 3.861 1.258 5.272.961Zm-32.957-4.598c-.658-.629-3.35.014-5.272.966-1.917.948-3.355 2.324-3.991 3.637 1.406.296 3.355-.014 5.272-.966 1.917-.957 4.072-2.721 3.991-3.637Zm40.29-4.33c2.066.073 3.916-.432 5.049-1.262-1.075-.911-2.885-1.54-4.95-1.618-2.065-.073-4.708.438-5.049 1.258.283.848 2.885 1.545 4.95 1.622Zm7.79-19.564c.713.437 3.024-.666 4.574-1.905 1.555-1.226 2.594-2.744 2.925-4.056-1.33.004-3.023.665-4.578 1.905-1.55 1.23-3.162 3.244-2.921 4.056Zm1.895.483c-1.72 1.007-3.61 2.798-3.48 3.646.649.537 3.118-.237 4.838-1.25 1.724-1.015 2.979-2.373 3.485-3.645-1.335-.182-3.122.242-4.843 1.249Zm-6.374 12.66c-2.038.219-4.556 1.094-4.78 1.946.394.788 3.037 1.112 5.071.893 2.038-.218 3.776-.975 4.78-1.95-1.174-.739-3.033-1.103-5.071-.889Zm2.576-3.892c-1.971.497-4.314 1.71-4.422 2.58.493.715 3.127.656 5.094.16 1.971-.502 3.579-1.482 4.421-2.576-1.254-.57-3.127-.66-5.093-.164Zm2.141-4.202c-1.864.766-4 2.283-3.982 3.145.577.633 3.153.21 5.012-.556 1.864-.766 3.306-1.955 3.983-3.14-1.304-.379-3.154-.214-5.013.551Zm-74.479-13.818c.448-.697-.537-3.04-1.671-4.63-1.133-1.586-2.557-2.68-3.807-3.049-.041 1.322.542 3.04 1.671 4.63 1.137 1.59 3.023 3.264 3.807 3.05Zm.65 4.571c.345-.76-.963-2.962-2.312-4.388-1.352-1.427-2.934-2.311-4.233-2.507.144 1.33.959 2.962 2.316 4.389 1.353 1.426 3.467 2.834 4.229 2.506Zm.313-19.09c.663-.438.704-2.908.314-4.772-.39-1.864-1.227-3.4-2.195-4.23-.546 1.158-.699 2.908-.309 4.772.39 1.864 1.411 4.106 2.19 4.23Zm-1.021 4.707c.605-.533.3-3.012-.345-4.817-.645-1.81-1.698-3.227-2.777-3.92-.39 1.236-.305 3.009.349 4.818.641 1.81 1.971 3.906 2.773 3.92Zm-.161 5.218c.533-.62-.117-3.058-1.013-4.771-.895-1.714-2.145-2.985-3.319-3.527-.219 1.294.117 3.057 1.012 4.771.896 1.718 2.518 3.628 3.32 3.527Zm3.584 17.492c.129-.843-1.761-2.63-3.481-3.646-1.725-1.008-3.512-1.431-4.843-1.249.507 1.267 1.761 2.634 3.481 3.646 1.725 1.012 4.184 1.79 4.843 1.249Zm4.735 7.702c-.103-.87-2.455-2.079-4.422-2.58-1.966-.497-3.839-.396-5.093.164.851 1.094 2.455 2.078 4.421 2.575 1.971.501 4.601.556 5.094-.16Zm1.366 4.853c-2.07.073-3.875.707-4.95 1.618 1.133.83 2.979 1.335 5.048 1.262 2.066-.072 4.668-.774 4.95-1.617-.345-.825-2.983-1.336-5.048-1.263Zm8.699 3.683c-.457-.77-3.167-.912-5.223-.543-2.061.374-3.781 1.263-4.73 2.324 1.249.67 3.167.912 5.223.543 2.06-.365 4.56-1.44 4.73-2.325Zm-7.136-5.273c-.224-.857-2.737-1.732-4.78-1.946-2.038-.22-3.892.15-5.07.888.998.976 2.741 1.728 4.779 1.95 2.039.215 4.682-.108 5.071-.892Zm10.89 7.283c-.56-.712-3.292-.456-5.304.204-2.007.666-3.606 1.805-4.408 3.004 1.34.492 3.293.455 5.304-.205 2.007-.666 4.363-2.092 4.408-3.004ZM195.25 57.901c.013-.866-2.124-2.383-3.987-3.144-1.864-.766-3.709-.93-5.013-.552.686 1.19 2.128 2.375 3.987 3.14 1.864.766 4.43 1.185 5.013.556Zm61.317-21.592c-1.917-.206-4.099-.374-6.428-.657-.009-.187-.032-.378-.04-.56-.484-8.076-5.166-15.03-11.84-18.626-.04-.018-.072-.041-.112-.06-.215-.118-.435-.227-.654-.337-.179-.09-.368-.173-.551-.26-.076-.04-.161-.072-.242-.113a21.63 21.63 0 0 0-8.265-1.846c-.161-1.869-.278-4.735-.372-7.775h-.013.013c-.009-.26-.287-5.04-.327-6.075-.04 1.035-.318 5.815-.327 6.075h.014-.014c-.094 3.044-.21 5.906-.372 7.775-2.925.068-5.716.72-8.265 1.846-.08.04-.165.072-.242.114a9.935 9.935 0 0 0-.551.26c-.219.109-.439.218-.654.337-.04.018-.071.04-.112.059-6.674 3.595-11.355 10.55-11.839 18.626-.009.182-.032.373-.041.56-2.329.283-4.511.451-6.428.657-.34.018-2.598.21-2.607.264.009.05 2.267.246 2.607.264 1.917.205 4.099.374 6.428.656.009.187.032.379.041.561.484 8.076 5.165 15.03 11.839 18.626.041.018.072.041.112.06.215.118.435.227.654.337.18.09.368.173.551.26.077.04.162.072.242.113a21.72 21.72 0 0 0 8.265 1.846c.162 1.868.278 4.735.372 7.775h.014-.014c.009.26.014 1.002.023 1.262.022.816.058 1.65.08 2.466.018.934.045 1.86.063 2.743l.04 1.864c.045 1.928.085 3.56.121 4.594.04-1.034.076-2.666.121-4.594l.04-1.864c.018-.884.045-1.81.063-2.743.018-.816.054-1.65.076-2.466.009-.26.014-1.002.027-1.262h-.013.013c.094-3.045.211-5.907.372-7.775a21.65 21.65 0 0 0 8.265-1.846c.085-.04.166-.073.242-.114.183-.086.372-.168.551-.26.219-.109.439-.218.654-.337.04-.018.072-.04.112-.059 6.674-3.596 11.356-10.55 11.84-18.626.008-.182.031-.374.04-.56 2.329-.283 4.511-.452 6.428-.657.341-.018 2.598-.21 2.607-.264-.009-.055-2.266-.246-2.607-.264ZM244.154 24.08a21.247 21.247 0 0 1 4.014 11.28c.004.145.018.287.022.433-3.203-.283-6.401-.566-9.044-1.135-3.615-.852-6.679-2.552-8.073-5.948-1.249-3.117-2.087-7.93-2.504-13.024 6.406.255 12.015 3.495 15.585 8.394ZM207.3 35.361a21.239 21.239 0 0 1 4.014-11.28c3.566-4.899 9.179-8.14 15.584-8.39-.416 5.095-1.249 9.908-2.504 13.025-1.393 3.395-4.457 5.095-8.072 5.947-2.643.565-5.846.853-9.044 1.135 0-.146.013-.292.022-.437Zm4.009 13.699a21.238 21.238 0 0 1-4.013-11.28c-.005-.145-.018-.287-.023-.432 3.203.282 6.402.565 9.045 1.134 3.615.853 6.679 2.553 8.072 5.948 1.25 3.117 2.087 7.93 2.504 13.025-6.406-.255-12.014-3.5-15.585-8.395Zm36.854-11.284a21.204 21.204 0 0 1-4.013 11.28c-3.571 4.899-9.179 8.139-15.585 8.394.416-5.095 1.25-9.908 2.504-13.025 1.393-3.395 4.457-5.095 8.072-5.947 2.643-.565 5.846-.848 9.045-1.135 0 .146-.018.292-.023.433Z"/>
  <path d="M227.754 5.328c-16.937 0-30.717 14.018-30.717 31.25 0 17.23 13.78 31.25 30.717 31.25 16.938 0 30.717-14.02 30.717-31.25-.005-17.237-13.784-31.25-30.717-31.25Zm21.148 52.765a29.77 29.77 0 0 1-9.505 6.521 29.307 29.307 0 0 1-11.643 2.393c-4.036 0-7.956-.802-11.643-2.393a29.845 29.845 0 0 1-9.51-6.521 30.36 30.36 0 0 1-6.41-9.676 30.711 30.711 0 0 1-2.352-11.844 30.7 30.7 0 0 1 2.352-11.845 30.341 30.341 0 0 1 6.41-9.67 29.747 29.747 0 0 1 9.51-6.522 29.308 29.308 0 0 1 11.643-2.393c4.036 0 7.956.807 11.643 2.393a29.77 29.77 0 0 1 9.505 6.521 30.344 30.344 0 0 1 6.411 9.671 30.71 30.71 0 0 1 2.352 11.845c0 4.106-.793 8.094-2.352 11.844a30.231 30.231 0 0 1-6.411 9.676Z"/>
  <path d="M227.754 2.912c18.277 0 33.091 15.071 33.091 33.665 0 18.59-14.814 33.666-33.091 33.666s-33.091-15.071-33.091-33.666c0-18.594 14.814-33.665 33.091-33.665Zm0-.547c-4.538 0-8.941.903-13.089 2.69a33.422 33.422 0 0 0-10.689 7.332 34.222 34.222 0 0 0-7.208 10.874 34.554 34.554 0 0 0-2.643 13.316c0 4.617.887 9.097 2.643 13.317a34.072 34.072 0 0 0 7.208 10.874 33.568 33.568 0 0 0 10.689 7.333 32.96 32.96 0 0 0 13.089 2.689c4.538 0 8.941-.907 13.09-2.69a33.418 33.418 0 0 0 10.688-7.332c3.086-3.14 5.51-6.8 7.208-10.874a34.57 34.57 0 0 0 2.643-13.317c0-4.616-.887-9.096-2.643-13.316a34.072 34.072 0 0 0-7.208-10.874 33.491 33.491 0 0 0-10.688-7.333 32.981 32.981 0 0 0-13.09-2.689Z"/>
  <path d="M264.613 36.272c0-17.837-12.449-29.245-22.838-33.342 10.2 4.293 21.682 15.81 21.682 33.342 0 21.26-14.81 34.258-33.674 36.983-.64.091-1.263.187-1.89.287h-.314c-.622-.1-1.249-.196-1.89-.287-18.864-2.725-33.674-15.723-33.674-36.983 0-17.532 11.482-29.049 21.677-33.342-10.388 4.097-22.837 15.505-22.837 33.342 0 21.1 13.26 34.039 32.119 38.195-1.554.342-2.988.716-4.215 1.121 0 0-.314.165-.031.999.277.838.68.824.68.824 2.222-.774 5.143-1.421 8.212-2.005h.237c3.069.584 5.989 1.226 8.211 2.005 0 0 .403.014.681-.825.282-.834-.031-.998-.031-.998-1.232-.405-2.666-.779-4.216-1.12 18.851-4.162 32.111-17.095 32.111-38.196Z"/>
  <path fill-rule="evenodd" d="M563.598 20.635c1.241-.12 2.47-.168 3.711-.168 2.506 0 3.36.888 3.36 3.228 0 1.716-.433 2.52-1.674 2.844l1.99 3.252c.094.132.035.24-.14.24h-2.154c-.27 0-.352-.084-.469-.264l-1.896-3.072h-.445v3.144c0 .156-.035.192-.176.192h-2.107c-.14 0-.175-.036-.175-.192V20.79c0-.108.035-.144.175-.156Zm4.578 3.144c0-.78-.258-1.116-1.136-1.116h-1.159v2.184h1.159c.878 0 1.136-.276 1.136-1.068Z" clip-rule="evenodd"/>
  <path fill-rule="evenodd" d="M575 25.036c0-5.588-2.399-8.036-7.937-8.036-5.539 0-8.063 2.448-8.063 8.036 0 5.586 2.524 7.964 8.063 7.964 5.538 0 7.937-2.378 7.937-7.964Zm-7.937-6.703c2.617 0 4.19.583 5.13 1.537.938.951 1.506 2.535 1.506 5.166 0 2.63-.568 4.191-1.499 5.123-.938.938-2.512 1.508-5.137 1.508-2.624 0-4.239-.57-5.211-1.52-.959-.936-1.551-2.497-1.551-5.11 0-2.616.592-4.2 1.557-5.155.975-.966 2.589-1.549 5.205-1.549Z" clip-rule="evenodd"/>
</svg>
