<svg xmlns="http://www.w3.org/2000/svg" width="32" height="32" fill="#fff" viewBox="0 0 32 32">
  <path d="m16 1.6.03.85a12.3 12.3 0 0 1 .05 24.59l-.02.84v.2l.69-.11c6.87-.98 12.27-5.66 12.27-13.3A13 13 0 0 0 21.23 2.7l-.1-.05.1.05c3.77 1.51 8.21 5.6 8.21 11.95 0 7.6-4.83 12.25-11.7 13.75.56.12 1.08.25 1.53.4 0 0 .12.06.01.36-.08.24-.19.29-.23.3h-.01c-.81-.28-1.88-.52-3-.72L16 30.4l-.04-1.66c-1.09.2-2.12.43-2.92.7l-.08.03c-.01 0-.15-.02-.24-.3-.1-.3 0-.36 0-.36.46-.15.98-.28 1.54-.4-6.87-1.5-11.7-6.15-11.7-13.75 0-6.35 4.44-10.44 8.2-11.95l.12-.05-.11.05a13 13 0 0 0-7.79 11.95c0 7.65 5.4 12.33 12.27 13.3l.7.11-.01-.19-.02-.64v-.2a12.3 12.3 0 0 1 .05-24.58v-.14L16 1.6Zm6.24 26.84c.7.34 1.22.84 1.45 1.3-.5.12-1.22 0-1.92-.34s-1.48-.98-1.45-1.3c.24-.23 1.22 0 1.92.34Zm-10.56-.35c.03.33-.75.97-1.45 1.31-.7.34-1.41.46-1.92.35.23-.47.75-.97 1.45-1.31.7-.34 1.68-.57 1.92-.35Zm12.12-.47c.73.24 1.31.65 1.6 1.08-.49.18-1.2.17-1.93-.07-.73-.24-1.59-.76-1.6-1.08.2-.26 1.2-.17 1.93.07Zm-13.66-.07c-.02.32-.88.84-1.61 1.08-.73.24-1.44.25-1.93.07.29-.43.87-.84 1.6-1.08.74-.24 1.73-.33 1.94-.07Zm15-.92a3.1 3.1 0 0 1 1.72.84c-.45.24-1.15.32-1.9.2-.75-.14-1.67-.53-1.73-.85.17-.27 1.16-.32 1.9-.19Zm-16.37.2c-.06.31-.98.7-1.73.83s-1.45.05-1.9-.2c.34-.38.97-.7 1.72-.83s1.74-.08 1.9.2Zm7.2-24.2a12.11 12.11 0 0 0-.25 24.22h.2l-.02-.44-.01-.44a11.24 11.24 0 0 1-11.1-11.2l-.25-.02h.2-.2l.26-.02c.02-6.16 5-11.17 11.13-11.21v-.18l.03-.57v-.13Zm.07 0v.18l.02.53.01.18a11.24 11.24 0 0 1 11.13 11.2l.26.02h-.19.2l-.27.02a11.24 11.24 0 0 1-11.09 11.21l-.01.44-.01.44a12.12 12.12 0 0 0 .15-24.21h-.2ZM26.4 25.5a3 3 0 0 1 1.8.58c-.4.3-1.08.48-1.83.46-.76-.03-1.7-.28-1.8-.59.12-.3 1.08-.48 1.83-.45Zm-18.96.45c-.1.3-1.05.56-1.8.59a3.06 3.06 0 0 1-1.85-.46c.4-.33 1.05-.55 1.8-.58.76-.03 1.72.16 1.85.45ZM26.9 14.78h-.1l-.27.02c-.7.07-1.52.15-2.37.25v.07l-.02.13a8.17 8.17 0 0 1-4.8 6.94l-.08.04c-.93.4-1.95.64-3.02.67-.05.67-.1 1.7-.13 2.8A10.95 10.95 0 0 0 26.9 14.78Zm-21.82-.01A10.96 10.96 0 0 0 15.7 25.7h.18v-.09a57.23 57.23 0 0 0-.13-2.7 8.01 8.01 0 0 1-3.03-.67l-.05-.03a7.93 7.93 0 0 1-.52-.25 8.17 8.17 0 0 1-4.29-6.5v-.02l-.01-.16-.02-.22c-.85-.1-1.67-.18-2.37-.25l-.37-.02v-.01Zm-.66 9.46c.74.07 1.66.39 1.74.7-.15.28-1.1.4-1.85.32a3.03 3.03 0 0 1-1.74-.7c.43-.27 1.1-.4 1.85-.32Zm25 .32c-.37.35-1 .62-1.75.7-.74.08-1.7-.04-1.85-.32.08-.31 1-.63 1.74-.7.75-.08 1.42.05 1.85.32Zm.94-1.67a3 3 0 0 1-1.61.93c-.72.18-1.68.2-1.86-.06.04-.31.9-.75 1.61-.93a3 3 0 0 1 1.86.06Zm-26.88-.06c.72.18 1.57.62 1.61.93-.18.26-1.14.24-1.86.06a3.01 3.01 0 0 1-1.6-.93 3 3 0 0 1 1.85-.06Zm-.78-1.5c.68.27 1.46.81 1.45 1.13-.21.22-1.15.07-1.83-.2-.68-.28-1.2-.7-1.45-1.14a2.97 2.97 0 0 1 1.83.2Zm28.41-.2c-.25.42-.77.85-1.45 1.12-.68.28-1.62.43-1.83.2 0-.3.77-.85 1.45-1.13a2.97 2.97 0 0 1 1.83-.2ZM23.46 15c-1.17.1-2.34.2-3.3.4-1.32.31-2.44.92-2.94 2.15a17.39 17.39 0 0 0-.92 4.68 7.4 7.4 0 0 0 5.68-3.02 7.57 7.57 0 0 0 1.47-4.06V15ZM8.54 15l.01.15a7.57 7.57 0 0 0 1.47 4.07 7.4 7.4 0 0 0 5.68 3.01 17.4 17.4 0 0 0-.92-4.68c-.5-1.23-1.62-1.84-2.99-2.14-.91-.2-2.08-.3-3.25-.41Zm23.12 4.22c-.18.46-.64.95-1.27 1.31-.63.37-1.52.64-1.76.45-.05-.3.64-.95 1.27-1.31a2.93 2.93 0 0 1 1.76-.45Zm-29.56.45c.63.36 1.32 1 1.27 1.31-.24.2-1.13-.08-1.76-.45a2.95 2.95 0 0 1-1.27-1.3c.48-.08 1.14.08 1.76.44ZM.06 17.35c.49 0 1.1.24 1.67.68.57.45 1.15 1.17 1.06 1.47-.26.15-1.1-.24-1.66-.69a2.93 2.93 0 0 1-1.07-1.46Zm31.88 0c-.12.47-.5 1.02-1.07 1.46-.56.45-1.4.84-1.66.69-.1-.3.5-1.02 1.06-1.47a2.9 2.9 0 0 1 1.67-.68ZM32 15.5a2.91 2.91 0 0 1-.84 1.58c-.5.52-1.27 1.02-1.55.9-.12-.27.36-1.06.85-1.57.5-.52 1.07-.84 1.54-.9Zm-32 0c.47.07 1.05.4 1.54.9.5.52.97 1.31.84 1.59-.27.11-1.04-.4-1.54-.9A2.9 2.9 0 0 1 0 15.5Zm31.85-1.92c.01.47-.2 1.1-.61 1.66-.41.57-1.1 1.18-1.39 1.1-.16-.25.2-1.1.61-1.66.41-.58.93-.97 1.39-1.1Zm-31.7 0c.46.13.98.52 1.39 1.1.41.57.77 1.41.6 1.66-.28.08-.97-.53-1.38-1.1a2.89 2.89 0 0 1-.6-1.66Zm15.77-9.79c-5.9.05-10.7 4.83-10.83 10.74v.18h.1l.27-.02c.7-.07 1.52-.15 2.37-.25l.02-.2a8.17 8.17 0 0 1 4.8-6.94l.08-.04c.93-.4 1.95-.64 3.02-.67.08-.94.13-1.9.17-2.8Zm.16 0 .01.23c.04.83.09 1.7.16 2.57a8 8 0 0 1 3.03.67l.05.03.08.03a9.69 9.69 0 0 1 .36.18l.08.04a8.17 8.17 0 0 1 4.29 6.5v.02l.01.16.02.22c.85.1 1.67.18 2.37.25l.37.02c-.03-6-4.87-10.87-10.83-10.92Zm15.43 7.91c.08.47-.04 1.1-.37 1.72-.33.62-.92 1.3-1.2 1.27-.2-.23.03-1.1.36-1.72.33-.62.78-1.07 1.21-1.27ZM.5 11.7c.43.2.88.65 1.2 1.27.34.62.57 1.5.38 1.72-.3.03-.89-.65-1.21-1.27A2.85 2.85 0 0 1 .5 11.7Zm15.2-4.44a7.4 7.4 0 0 0-5.67 3.02 7.57 7.57 0 0 0-1.47 4.06v.15c1.16-.1 2.33-.2 3.3-.4 1.3-.31 2.43-.92 2.93-2.15.46-1.12.76-2.85.92-4.68Zm.61 0c.16 1.83.46 3.56.92 4.68.5 1.23 1.62 1.84 2.99 2.14.91.2 2.08.3 3.25.41l-.01-.16a7.57 7.57 0 0 0-1.47-4.06 7.4 7.4 0 0 0-5.68-3.01Zm14.71 2.4a2.9 2.9 0 0 1-.12 1.74c-.24.65-.72 1.4-1.02 1.41-.22-.2-.1-1.08.13-1.73.24-.65.62-1.16 1.01-1.41ZM1 9.67c.4.26.77.77 1 1.42.25.65.36 1.54.14 1.73-.3 0-.78-.76-1.02-1.41A2.83 2.83 0 0 1 1 9.67Zm29.2-1.78c.2.41.25 1.04.1 1.71-.13.67-.5 1.48-.79 1.53-.24-.16-.25-1.05-.11-1.72.14-.67.44-1.23.8-1.52Zm-28.38 0c.36.3.66.85.8 1.52s.13 1.56-.11 1.72c-.29-.05-.66-.86-.8-1.53a2.8 2.8 0 0 1 .11-1.71Zm1.05-1.63c.3.34.52.92.57 1.6.05.68-.09 1.55-.35 1.67-.27-.09-.52-.93-.57-1.6-.05-.68.1-1.3.35-1.67Zm26.28 0c.26.38.4.99.35 1.66-.05.68-.3 1.52-.57 1.6-.26-.11-.4-.98-.35-1.66.05-.68.27-1.26.57-1.6ZM4.1 4.67c.25.38.39.98.34 1.65-.04.67-.3 1.5-.57 1.59-.25-.12-.39-.98-.34-1.65.05-.67.27-1.25.57-1.59Zm23.82 0c.3.34.52.92.57 1.59.05.67-.09 1.53-.34 1.65-.28-.08-.53-.92-.57-1.59-.05-.67.09-1.27.34-1.65ZM5.54 3.2c.2.4.24 1.02.1 1.68-.13.66-.5 1.45-.78 1.5-.24-.16-.25-1.03-.1-1.7.13-.65.43-1.19.78-1.48Zm20.93 0c.34.29.64.83.78 1.49s.13 1.53-.11 1.68c-.28-.04-.65-.83-.79-1.49a2.74 2.74 0 0 1 .11-1.68ZM7.18 2.05c.14.43.1 1.04-.12 1.66-.23.63-.7 1.35-.97 1.36-.22-.19-.1-1.04.12-1.67.22-.62.6-1.11.97-1.35Zm17.64 0c.38.24.75.73.97 1.35.23.63.34 1.48.12 1.67-.28 0-.74-.73-.97-1.36a2.71 2.71 0 0 1-.12-1.66Z"/>
</svg>
