<svg xmlns="http://www.w3.org/2000/svg" width="32" height="32" fill="#fff" viewBox="0 0 32 32">
  <path d="M15.95 6.7h.07c3.57 0 6.7 1.86 8.5 4.65l.5-.15V6H7v5.2l.5.15c1.79-2.78 4.9-4.63 8.45-4.65Z"/>
  <path d="m16.23 7.63-.21-.01v.01l-.01-.01-.01.01v-.01l-.21.01a9.195 9.195 0 0 0-7.37 3.98l.97.27c.24-.32.49-.62.77-.9a8.24 8.24 0 0 1 5.63-2.41l.21-.01v-.01l.01.01.01-.01v.01l.21.01c2.2.06 4.18.96 5.63 2.41.28.28.53.59.77.9l.97-.27a9.195 9.195 0 0 0-7.37-3.98ZM3.37 13.82l4.42 1.33c-.1.48-.15.98-.16 1.48l-3.88-1.29-.38-1.52Zm5.3-.99-6-1.81.49 1.98 4.8 1.45c.18-.58.42-1.12.71-1.62Zm-4.72 3.3 3.71 1.2c.04.61.15 1.19.33 1.75l-3.62-1.27-.42-1.68Z"/>
  <path fill-rule="evenodd" d="M23.06 16.82c0 3.89-3.15 7.04-7.04 7.04H16c-3.89 0-7.04-3.15-7.04-7.04S12.11 9.78 16 9.78h.02c3.89 0 7.04 3.15 7.04 7.04Zm-6.82-3.59-.02.16v1.27h1.41V13.5H19v-1.3h-1.51c-.53 0-1.14.51-1.25 1.03Zm3.06-1.03v2.76l-3.18 2.85v1.3h1.52v-.61l3.18-2.95V13.4l-.02-.16-.03-.1-.12-.25-.2-.25-.04-.04c-.25-.24-.57-.4-.86-.4h-.25Zm1.52 7.19h-4.7v1.3h4.7v-1.3Zm-5.95-7.19h-1.51v8.49h1.51v-1.78h.8v-1.16h-.8V12.2Zm-1.82 5.55h-1.68l1.68-2.99V12.5l-2.86 5v1.41h2.86v-1.16Z" clip-rule="evenodd"/>
  <path d="M16.02 25.1H16a8.27 8.27 0 0 1-7.56-4.92l-1.98-.44c1.24 3.92 5.22 6.77 9.55 6.77h.02c4.32 0 8.31-2.85 9.55-6.77l-1.98.44c-1.31 2.89-4.21 4.92-7.58 4.92Zm12.24-9.76-3.88 1.29c0-.5-.05-1-.15-1.48l4.41-1.33-.38 1.52Zm-4.92-2.51c.29.51.53 1.05.7 1.61l4.8-1.45.49-1.98-5.99 1.82Zm4.31 4.98-3.62 1.27c.17-.56.28-1.14.33-1.75l3.71-1.2-.42 1.68Z"/>
  <path fill-rule="evenodd" d="M27.02 9.71V4H5v5.71l-5-1.3 2.61 10.7 1.62.57.11.04v.01l.02.08c1.4 5.12 6.19 8.69 11.64 8.69h.02c5.45 0 10.24-3.57 11.63-8.68l.02-.08v-.01l.11-.04 1.62-.57L32 8.41l-4.98 1.3Zm1.55 8.63-1.11.39-.63.22-.03.13c-.03.13-.06.26-.09.38l-.02.08c-1.25 4.57-5.55 7.95-10.67 7.95H16c-5.12 0-9.42-3.38-10.67-7.95l-.02-.08c-.03-.12-.06-.25-.09-.38l-.03-.13-.63-.22-1.11-.39-2.1-8.55L6 11V5h20.02v6l4.65-1.21-2.1 8.55Z" clip-rule="evenodd"/>
</svg>
